<svg width="224" height="212" viewBox="0 0 224 212" fill="none" xmlns="http://www.w3.org/2000/svg">
<g filter="url(#filter0_d_27_1847)">
<path d="M213 106C213 160.124 167.781 204 112 204C56.2192 204 11 160.124 11 106C11 51.8761 56.2192 8 112 8C167.781 8 213 51.8761 213 106Z" fill="white"/>
</g>
<g style="mix-blend-mode:multiply">
<path d="M29.9465 50.131C44.7113 29.8027 50.6424 29.7281 52.2814 33.4386C66.4556 38.8117 55.9507 52.8658 53.6057 58.4054C51.2608 63.9449 51.6684 66.0292 60.4933 77.5421C90.2523 94.9794 73.0974 104.5 69.9123 110.806C66.7268 117.112 35.749 127.738 33.4631 105.516C31.6343 87.7383 23.4766 81.0407 19.6262 79.9142C17.9786 79.451 14.6608 71.1764 29.9465 50.131ZM146.995 33.7443C158.311 27.0409 167.786 26.5865 171.11 27.1974C209.5 50.9998 217.5 101.5 208 101.5C196.484 101.5 195.359 93.1863 186.468 94.1027C177.577 95.0192 200.074 106.279 184.447 110.6C168.82 114.92 163.431 85.8545 167.473 82.5812C170.706 79.9627 180.137 79.9183 184.447 80.2238C184.447 68.0742 182.711 81.0765 174.478 76.8205C166.245 72.5642 171.11 76.6887 150.768 78.2599C114.798 91.3529 125.575 77.9979 123.284 74.8556C120.996 71.7109 132.851 42.1235 146.995 33.7443ZM93.4396 16.2824C108.932 16.2823 120.787 9.86665 126.85 11.1759C132.912 12.4855 131.16 38.1537 122.943 39.1955C114.725 40.2374 115.802 52.6808 105.833 52.6808C95.8647 52.6804 104.89 34.1287 90.7453 28.7209C68.0048 20.0271 80.0127 14.5803 93.4396 16.2824Z" fill="#66BE0E" fill-opacity="0.5"/>
</g>
<g filter="url(#filter1_d_27_1847)">
<path d="M61.4088 178.224L60.9993 178.778L51.3431 171.644L51.7526 171.091L54.3113 172.981C53.7776 171.498 54.0917 169.972 55.2536 168.401L58.9775 163.367L60.9833 164.849L57.3071 169.819C56.7737 170.539 56.5187 171.234 56.5419 171.901C56.5714 172.56 56.869 173.099 57.4348 173.517C58.0005 173.935 58.5986 174.058 59.2291 173.887C59.8746 173.713 60.4639 173.266 60.9973 172.545L64.6735 167.575L66.6793 169.057L62.9555 174.091C61.7936 175.662 60.4294 176.412 58.863 176.344L61.4088 178.224ZM71.5394 184.003L71.2083 184.607L62.1191 179.635L62.4502 179.031L63.8108 179.776L68.8619 170.566L71.0501 171.763L66.7381 179.625L70.918 181.911L70.1788 183.259L71.5394 184.003ZM80.2067 181.518L81.8285 188.134L83.0627 188.622L82.8086 189.262L79.3291 187.885L77.9122 182.573L76.4103 183.322L75.2401 186.268L71.6417 184.844L71.8958 184.204L73.1746 184.71L77.0518 174.95L79.3714 175.867L77.6751 180.138L83.2969 177.42L86.1667 178.556L80.2067 181.518ZM96.1619 191.72L96.0046 192.39L83.138 189.392L83.2953 188.722L86.769 189.531C86.0321 188.845 85.5144 188.017 85.216 187.049C84.9279 186.084 84.9059 185.082 85.1498 184.043C85.5255 182.443 86.3893 181.237 87.7413 180.423C89.0958 179.599 90.5778 179.375 92.1874 179.75C93.797 180.125 95.0254 180.981 95.8725 182.318C96.722 183.644 96.9589 185.107 96.5833 186.707C96.3394 187.746 95.8682 188.633 95.1697 189.369C94.4712 190.104 93.6441 190.618 92.6883 190.911L96.1619 191.72ZM94.1029 186.145C94.3322 185.169 94.2158 184.265 93.7537 183.435C93.2916 182.604 92.6037 182.082 91.6898 181.869C90.7863 181.658 89.9426 181.823 89.1585 182.364C88.3744 182.904 87.8678 183.663 87.6385 184.639C87.4116 185.605 87.5292 186.504 87.9913 187.334C88.4558 188.155 89.1398 188.67 90.0433 188.881C90.9571 189.094 91.8049 188.935 92.5865 188.405C93.3706 187.865 93.8761 187.112 94.1029 186.145ZM109.756 193.042L109.7 193.728L105.841 193.417L106.202 189.032L101.769 188.675L101.407 193.06L97.5483 192.75L97.6047 192.064L98.9762 192.174L99.8377 181.713L102.325 181.913L101.942 186.57L106.375 186.927L106.759 182.27L109.246 182.47L108.385 192.932L109.756 193.042ZM124.761 192.302L124.804 192.989L120.604 193.258L119.416 190.913L114.736 191.213L113.848 193.69L109.648 193.959L109.605 193.272L111.442 193.155L115.326 182.391L117.738 182.236L122.909 192.421L124.761 192.302ZM116.747 185.634L115.543 188.965L118.337 188.786L116.747 185.634ZM114.098 180.946C113.86 180.727 113.731 180.452 113.71 180.122C113.69 179.792 113.784 179.508 113.994 179.27C114.214 179.021 114.488 178.886 114.818 178.864C115.148 178.843 115.433 178.943 115.671 179.163C115.919 179.371 116.053 179.64 116.074 179.97C116.094 180.3 115.995 180.59 115.775 180.839C115.565 181.077 115.295 181.206 114.965 181.228C114.635 181.249 114.346 181.155 114.098 180.946ZM117.18 180.749C116.942 180.529 116.813 180.254 116.792 179.924C116.772 179.594 116.866 179.31 117.076 179.073C117.296 178.823 117.571 178.688 117.901 178.667C118.231 178.646 118.515 178.745 118.753 178.965C119.001 179.174 119.135 179.443 119.156 179.773C119.176 180.103 119.077 180.393 118.857 180.642C118.647 180.88 118.378 181.009 118.048 181.03C117.718 181.051 117.428 180.958 117.18 180.749ZM134.653 190.414L134.78 191.09L124.59 193.024L124.463 192.348L125.988 192.059L124.048 181.748L126.502 181.282L128.157 190.084L132.844 189.194L133.127 190.703L134.653 190.414ZM143.562 187.587L143.765 188.244L134.316 191.178L134.113 190.521L137.645 189.424L136.546 185.864L130.849 180.55L133.433 179.748L136.969 183.003L138.051 178.314L140.634 177.512L138.931 185.124L140.03 188.684L143.562 187.587ZM153.873 183.126L154.156 183.752L145.289 187.771L145.006 187.144L148.302 185.65L144.872 178.06L141.984 179.368L141.096 177.401L149.146 173.753L150.035 175.72L147.147 177.028L150.577 184.619L153.873 183.126ZM159.823 179.877L160.165 180.473L155.612 183.092L155.27 182.496L156.464 181.809L151.242 172.714L153.407 171.469L158.629 180.564L159.823 179.877ZM162.254 178.304L156.038 169.859L157.92 168.472L166.607 171.007L162.342 165.214L164.354 163.732L170.57 172.178L171.821 171.256L172.228 171.81L168.966 174.213L160.522 171.737L164.673 177.376L161.411 179.779L161.003 179.226L162.254 178.304Z" fill="#0086BB"/>
</g>
<path d="M140.842 62.0513C144.236 60.6463 152.5 64 155.165 72.9809" stroke="#0086BB" stroke-width="5" stroke-linecap="round"/>
<path d="M82.1428 61.9513C78.7291 60.5939 69.4999 64 67.9739 73.0803" stroke="#0086BB" stroke-width="5" stroke-linecap="round"/>
<path d="M143 149.009C146.667 148.843 153.8 150.809 153 160.009" stroke="#0086BB" stroke-width="5" stroke-linecap="round"/>
<path d="M81.0621 149.009C77.3954 148.843 70.2621 150.809 71.0621 160.009" stroke="#0086BB" stroke-width="5" stroke-linecap="round"/>
<line x1="112.636" y1="54" x2="112.636" y2="65" stroke="#0086BB" stroke-width="4" stroke-linecap="round"/>
<g filter="url(#filter2_i_27_1847)">
<ellipse cx="112.86" cy="111.013" rx="52.382" ry="51.1308" fill="#A9ECF2"/>
</g>
<path d="M112.86 61.882C140.731 61.882 163.242 83.9239 163.242 111.013C163.242 138.102 140.731 160.144 112.86 160.144C84.9889 160.144 62.4781 138.102 62.478 111.013C62.478 83.924 84.9889 61.882 112.86 61.882Z" stroke="#0086BB" stroke-width="4"/>
<g filter="url(#filter3_d_27_1847)">
<path d="M107.46 115.828L110.504 121.507C111.365 123.115 113.567 123.466 114.907 122.208L142.561 96.2585" stroke="#0086BB" stroke-width="3" stroke-linecap="round"/>
</g>
<g filter="url(#filter4_d_27_1847)">
<path d="M107.46 143.172C113.22 144.929 126.253 145.386 132.301 133.156" stroke="#0086BB" stroke-width="3" stroke-linecap="round"/>
</g>
<g filter="url(#filter5_d_27_1847)">
<path d="M91.6176 83.6063L107.782 98.0128L86.939 93.1082" stroke="#0086BB" stroke-width="3" stroke-linecap="round"/>
</g>
<defs>
<filter id="filter0_d_27_1847" x="9" y="6" width="210" height="204" filterUnits="userSpaceOnUse" color-interpolation-filters="sRGB">
<feFlood flood-opacity="0" result="BackgroundImageFix"/>
<feColorMatrix in="SourceAlpha" type="matrix" values="0 0 0 0 0 0 0 0 0 0 0 0 0 0 0 0 0 0 127 0" result="hardAlpha"/>
<feOffset dx="2" dy="2"/>
<feGaussianBlur stdDeviation="2"/>
<feComposite in2="hardAlpha" operator="out"/>
<feColorMatrix type="matrix" values="0 0 0 0 0 0 0 0 0 0 0 0 0 0 0 0 0 0 0.25 0"/>
<feBlend mode="normal" in2="BackgroundImageFix" result="effect1_dropShadow_27_1847"/>
<feBlend mode="normal" in="SourceGraphic" in2="effect1_dropShadow_27_1847" result="shape"/>
</filter>
<filter id="filter1_d_27_1847" x="49.696" y="158.9" width="125.796" height="39.7266" filterUnits="userSpaceOnUse" color-interpolation-filters="sRGB">
<feFlood flood-opacity="0" result="BackgroundImageFix"/>
<feColorMatrix in="SourceAlpha" type="matrix" values="0 0 0 0 0 0 0 0 0 0 0 0 0 0 0 0 0 0 127 0" result="hardAlpha"/>
<feOffset dx="1" dy="1"/>
<feGaussianBlur stdDeviation="1"/>
<feComposite in2="hardAlpha" operator="out"/>
<feColorMatrix type="matrix" values="0 0 0 0 0 0 0 0 0 0 0 0 0 0 0 0 0 0 0.25 0"/>
<feBlend mode="normal" in2="BackgroundImageFix" result="effect1_dropShadow_27_1847"/>
<feBlend mode="normal" in="SourceGraphic" in2="effect1_dropShadow_27_1847" result="shape"/>
</filter>
<filter id="filter2_i_27_1847" x="60.478" y="59.882" width="106.764" height="104.262" filterUnits="userSpaceOnUse" color-interpolation-filters="sRGB">
<feFlood flood-opacity="0" result="BackgroundImageFix"/>
<feBlend mode="normal" in="SourceGraphic" in2="BackgroundImageFix" result="shape"/>
<feColorMatrix in="SourceAlpha" type="matrix" values="0 0 0 0 0 0 0 0 0 0 0 0 0 0 0 0 0 0 127 0" result="hardAlpha"/>
<feOffset dx="2" dy="2"/>
<feGaussianBlur stdDeviation="1"/>
<feComposite in2="hardAlpha" operator="arithmetic" k2="-1" k3="1"/>
<feColorMatrix type="matrix" values="0 0 0 0 0 0 0 0 0 0 0 0 0 0 0 0 0 0 0.25 0"/>
<feBlend mode="normal" in2="shape" result="effect1_innerShadow_27_1847"/>
</filter>
<filter id="filter3_d_27_1847" x="103.96" y="94.7585" width="42.1016" height="33.7093" filterUnits="userSpaceOnUse" color-interpolation-filters="sRGB">
<feFlood flood-opacity="0" result="BackgroundImageFix"/>
<feColorMatrix in="SourceAlpha" type="matrix" values="0 0 0 0 0 0 0 0 0 0 0 0 0 0 0 0 0 0 127 0" result="hardAlpha"/>
<feOffset dy="2"/>
<feGaussianBlur stdDeviation="1"/>
<feComposite in2="hardAlpha" operator="out"/>
<feColorMatrix type="matrix" values="0 0 0 0 0 0 0 0 0 0 0 0 0 0 0 0 0 0 0.25 0"/>
<feBlend mode="normal" in2="BackgroundImageFix" result="effect1_dropShadow_27_1847"/>
<feBlend mode="normal" in="SourceGraphic" in2="effect1_dropShadow_27_1847" result="shape"/>
</filter>
<filter id="filter4_d_27_1847" x="103.96" y="131.656" width="31.8417" height="17.9389" filterUnits="userSpaceOnUse" color-interpolation-filters="sRGB">
<feFlood flood-opacity="0" result="BackgroundImageFix"/>
<feColorMatrix in="SourceAlpha" type="matrix" values="0 0 0 0 0 0 0 0 0 0 0 0 0 0 0 0 0 0 127 0" result="hardAlpha"/>
<feOffset dy="2"/>
<feGaussianBlur stdDeviation="1"/>
<feComposite in2="hardAlpha" operator="out"/>
<feColorMatrix type="matrix" values="0 0 0 0 0 0 0 0 0 0 0 0 0 0 0 0 0 0 0.25 0"/>
<feBlend mode="normal" in2="BackgroundImageFix" result="effect1_dropShadow_27_1847"/>
<feBlend mode="normal" in="SourceGraphic" in2="effect1_dropShadow_27_1847" result="shape"/>
</filter>
<filter id="filter5_d_27_1847" x="83.4386" y="82.1063" width="27.3409" height="21.3666" filterUnits="userSpaceOnUse" color-interpolation-filters="sRGB">
<feFlood flood-opacity="0" result="BackgroundImageFix"/>
<feColorMatrix in="SourceAlpha" type="matrix" values="0 0 0 0 0 0 0 0 0 0 0 0 0 0 0 0 0 0 127 0" result="hardAlpha"/>
<feOffset dy="2"/>
<feGaussianBlur stdDeviation="1"/>
<feComposite in2="hardAlpha" operator="out"/>
<feColorMatrix type="matrix" values="0 0 0 0 0 0 0 0 0 0 0 0 0 0 0 0 0 0 0.25 0"/>
<feBlend mode="normal" in2="BackgroundImageFix" result="effect1_dropShadow_27_1847"/>
<feBlend mode="normal" in="SourceGraphic" in2="effect1_dropShadow_27_1847" result="shape"/>
</filter>
</defs>
</svg>
